<svg id="레이어_1" data-name="레이어 1" xmlns="http://www.w3.org/2000/svg" viewBox="0 0 200 200"><path d="M67,82.44a23.32,23.32,0,0,0,11.67-3.11c-2.78-4-7.1-4.06-10.94-5.2-1.4,5-7.86,7.76-15.51,4.93-.86,3.81-1.77,7.57-2.53,11.36a55.77,55.77,0,0,0-.78,6.06,7.47,7.47,0,0,0,4.39,7.79A53.09,53.09,0,0,0,59.78,107c6,2.1,11.22,5.17,15.23,10.35,3.84,5,9.39,5.47,15.08,4.26a41.66,41.66,0,0,0,8.83-3c5.43-2.52,10.33-1.83,15.07,1.59a32.46,32.46,0,0,1,8.83,9.63c1.86,3.07,3.54,6.26,5.23,9.44.22.41.06,1,.08,1.56A5.5,5.5,0,0,1,127,139.8c-2.74-4.43-5.27-9-8.2-13.3a22.07,22.07,0,0,0-8.21-6.88c-3.41-1.79-6.72-1.52-10.23-.2A68,68,0,0,1,88.86,123c-6.28,1.17-11.78-.53-15.78-5.89-3-4-7.17-6.48-11.8-8.22-1.85-.7-3.72-1.35-5.56-2.07-7-2.76-9-6.3-7.71-13.74.73-4.18,1.62-8.34,2.45-12.55-1.77-1.1-3.7-2.18-5.5-3.44a3.92,3.92,0,0,1-.56-6c2.29-2.1,2.8-4.46,2.52-7.44a24.83,24.83,0,0,1,.61-7.12,8.74,8.74,0,0,1,4.06-5.69A16.27,16.27,0,0,0,59.18,39c.92-6.72,4.7-11.39,11.22-13.42,6.84-2.12,12.72,0,17.44,5.12a48.89,48.89,0,0,1,5.37,7.63,5.67,5.67,0,0,0,5.46,3.07c7.56-.35,9.08.81,10.68,8.35L119,41.48l19.57-16.76c2.4-2,3.55-2,5.61.3a457.81,457.81,0,0,0,39.6,39.57,2.05,2.05,0,0,1,.57,1.37q.08,6.57,0,13.15c0,.46-.45.92-.68,1.38a4.2,4.2,0,0,1-.54-1.36c0-4.13,0-8.25,0-13L149.73,92c7.44,6.79,10.86,15,10.15,24.76a4.26,4.26,0,0,1-.63,1.38l-.59-.13c0-.55,0-1.09,0-1.63.52-9.57-2.77-17.42-10.24-23.58-10.32-8.5-22.1-14.55-33.91-20.55-4.47-2.27-9.29-3.76-14.42-2.6a21.91,21.91,0,0,0-5.51,2.1c-3,1.65-6,3.59-9,5.36-4.76,2.81-9.55,5.56-15.15,6.38a20,20,0,0,1-2.69.2c-2.08,0-2.25-.15-2.11-2.27a3.4,3.4,0,0,1,.53-1.13,6.79,6.79,0,0,1,.7,1.07A4.68,4.68,0,0,1,67,82.44ZM182.33,65.09c-.39-.36-.73-.69-1.09-1A479.53,479.53,0,0,1,143.5,26.24c-2.05-2.29-2.12-2.3-4.43-.31-9,7.68-17.92,15.42-27,23-2,1.73-3.66,3.49-3.95,6.26s-1,5.78-1.1,8.67a5.76,5.76,0,0,0,3.41,5.32c6.62,3.36,13.39,6.44,19.86,10.07S142.86,87,149.09,90.86Zm-122.91-2,.22-.43A9.06,9.06,0,0,0,58.51,61a3,3,0,0,1-.76-3.45c.21-.63.37-1.27.59-1.89,1.75-5,3.42-10,5.33-14.87.87-2.21,2.59-2.9,5-2.66a7.69,7.69,0,0,1,6.57,4.66,19.77,19.77,0,0,1,1.12,4.5c.39,2.06,1.33,3,3.41,3,1,0,1.91-.2,2.86-.25a16.09,16.09,0,0,1,2.69,0A3.38,3.38,0,0,1,87,56.31c-.51.39-1,.77-1.67,1.24,3.82.9,6,3.44,7.61,6.6,1,1.84,1.92,3.66,2.56,4.87L107,67.84c-2-3.23-1.66-7-.62-10.79a24.74,24.74,0,0,0,1-3.83,23.05,23.05,0,0,0,.17-5.86c-.48-3.18-2.71-4.84-5.92-4.86-1.2,0-2.4,0-3.6,0a6,6,0,0,1-5.63-3.23c-.53-1-1.06-1.89-1.63-2.81a23.49,23.49,0,0,0-8.3-8.56c-9-5.14-20.9.59-22,10.71a17.54,17.54,0,0,1-8.25,13.27,7.08,7.08,0,0,0-3.35,4.47,27.42,27.42,0,0,0-.72,6.73c.17,3.3.06,6.27-2.73,8.66A2.71,2.71,0,0,0,45.67,76c1.71,1.18,3.52,2.21,5.49,3.43a15.24,15.24,0,0,0,.18-2.94,10.59,10.59,0,0,1,1.88-7.67c.85-1.22,1.87-2.34,2.63-3.62S57.52,62.73,59.42,63.09Zm22-4.36L81.31,58l1.62-.87A15.93,15.93,0,0,0,86,55.34c.67-.62,1.49-1.88,1.26-2.47a3.44,3.44,0,0,0-2.44-1.63,20.43,20.43,0,0,0-4.47.21c-3,.25-4.69-1-5.21-3.93-.12-.65-.18-1.3-.29-2a7.22,7.22,0,0,0-5.23-6c-2.51-.79-4.47.06-5.34,2.55-1.87,5.29-3.62,10.63-5.36,16a1.89,1.89,0,0,0,.2,1.62c1.86,1.6,1.81,3.67,1.64,5.8A5,5,0,0,0,62.41,70a10.61,10.61,0,0,0,5.64-3.71c.21-.27.76-.26,1.14-.38A3.46,3.46,0,0,1,69,67a3.75,3.75,0,0,1-.93,1.09c-1.35,1.07-2.74,2.09-4.43,3.37a46,46,0,0,0,5.72,1.94c4.1.82,8.12,1.61,10.65,5.56l13.22-8c.15-.09.4-.14.45-.28.19-.46.58-1.1.41-1.42a73.28,73.28,0,0,0-4-7.21,7.55,7.55,0,0,0-7-3.35C82.56,58.75,82,58.73,81.47,58.73ZM59.4,64.12c-.69.23-1.37.24-1.64.58A42.85,42.85,0,0,0,54,70.05a11.66,11.66,0,0,0-1.37,4.56c-.09,1.12.23,2.78,1,3.36,3,2.25,9.57,1,11.87-2,1.16-1.51,1-2-.75-2.86-3.28-1.56-5.51-3.82-5.19-7.79A7,7,0,0,0,59.4,64.12Z"/><path d="M57.51,165C65.4,159,73.08,153,81,147.2c9.82-7.21,19.82-14.17,29.72-21.27.54-.39.84-1.09,1.32-1.57a4.87,4.87,0,0,1,1.08-.66c.15.46.56,1.06.4,1.35a5,5,0,0,1-1.49,1.49c-10.54,7.55-21.18,15-31.61,22.66-7.34,5.41-14.42,11.17-21.56,16.85a3.44,3.44,0,0,0-1,2.32c-.12,2.88,0,5.77-.07,8.65a5,5,0,0,1-.55,1.51,4.85,4.85,0,0,1-.66-1.58c-.07-3.42,0-6.84-.09-10.26a2.77,2.77,0,0,0-.56-1.6q-22.35-27-42.82-55.43c-.21-.27-.44-.53-1-1.18,0,2.62.09,4.81,0,7-.1,2,.53,4.14-.43,6.06l-.56,0V107.35c3.65-1.84,7.21-3.37,10.51-5.37,6.82-4.12,13.48-8.5,20.24-12.74a7,7,0,0,1,1.82-.52l.13.55L13.59,108.16C27.44,127.46,42.26,146.59,57.51,165Z"/><path d="M106.75,93.82a6.17,6.17,0,0,1-.73,1.1,70.34,70.34,0,0,1-6.59,6.34c-4.89,3.68-10,7-16.08,8.59a11.35,11.35,0,0,0-2.16,1.21,4.77,4.77,0,0,1-1.06.3c.08-.41,0-1,.28-1.19a12.25,12.25,0,0,1,2.94-1.62,48.5,48.5,0,0,0,21.76-14.43,3.52,3.52,0,0,1,1.1-.75C106.29,93.34,106.53,93.63,106.75,93.82Z"/><path d="M71.06,102.18c.42-2,1.84-2.53,3.18-2.89,6.22-1.68,11.44-5.19,16.46-9a62.19,62.19,0,0,0,5.51-5.39,14.92,14.92,0,0,1,1.32-1l.46.44A11,11,0,0,1,97,85.84,50.06,50.06,0,0,1,76,100.06c-1.31.49-2.52,1.27-3.78,1.89A5.18,5.18,0,0,1,71.06,102.18Z"/><path d="M85.26,53.34a6.25,6.25,0,0,1-1.27,2c-.3.22-1.27-.18-1.73-.56s-.4-1-.57-1.51l3.16-.44Z"/><path d="M67,56.13l-1.17,1.15a4.71,4.71,0,0,1-.66-1.57c0-.46.46-.92.71-1.38Z"/><ellipse cx="65.94" cy="55.69" rx="1.13" ry="1.8"/></svg>